<svg id="Layer_1" height="512" viewBox="0 0 64 64" width="512" xmlns="http://www.w3.org/2000/svg" data-name="Layer 1"><g fill="rgb(0,0,0)"><path d="m61 30h-6a1 1 0 0 1 -1-1v-12a1 1 0 0 1 1-1h6a1 1 0 0 1 1 1v12a1 1 0 0 1 -1 1zm-5-2h4v-10h-4z"/><path d="m52 30h-6a1 1 0 0 1 -1-1v-24a1 1 0 0 1 1-1h6a1 1 0 0 1 1 1v24a1 1 0 0 1 -1 1zm-5-2h4v-22h-4z"/><path d="m44 29h-2v-17h-4v2.338h-2v-3.338a1 1 0 0 1 1-1h6a1 1 0 0 1 1 1z"/><path d="m40.758 28h20.242v2h-20.242z"/><path d="m21.991 46.032a20.015 20.015 0 1 1 14.151-34.174 20.011 20.011 0 0 1 0 28.284 19.667 19.667 0 0 1 -2.414 2.058 19.923 19.923 0 0 1 -11.737 3.832zm.009-38.032a18 18 0 1 0 10.557 32.577 17.863 17.863 0 0 0 4.018-4.017 17.908 17.908 0 0 0 -1.847-23.288 17.883 17.883 0 0 0 -12.728-5.272z"/><path d="m22 43a17 17 0 1 1 17-17 17.019 17.019 0 0 1 -17 17zm0-32a15 15 0 1 0 15 15 15.017 15.017 0 0 0 -15-15z"/><path d="m40.385 50.041-7.948-7.947 1.414-1.414 6.534 6.533 2.828-2.828-6.533-6.534 1.414-1.414 7.948 7.948z"/><path d="m49.577 60.577a6.955 6.955 0 0 1 -4.95-2.051l-6.363-6.363a2 2 0 0 1 0-2.828l7.07-7.071a2 2 0 0 1 2.829 0l6.364 6.364a7 7 0 0 1 0 9.9 6.951 6.951 0 0 1 -4.95 2.049zm-2.828-16.9-7.071 7.071 6.364 6.363a5 5 0 0 0 7.071 0 5 5 0 0 0 0-7.07z"/><path d="m13.458 34.043a3.018 3.018 0 0 1 -.949-.155 2.984 2.984 0 0 1 -1.736-1.5l-1.791-3.579a3.005 3.005 0 0 1 1.339-4.027l4.471-2.239 4.478 8.941-4.47 2.24a2.992 2.992 0 0 1 -1.342.319zm.441-8.816-2.682 1.343a1 1 0 0 0 -.447 1.343l1.792 3.575a1 1 0 0 0 1.341.448l2.683-1.344z"/><path d="m17.329 32.075-4.173-8.332 8.3-9.82a3 3 0 0 1 4.973.592l6.239 12.459a3 3 0 0 1 -2.5 4.338zm-1.794-8.049 2.992 5.974 11.518-.685a1 1 0 0 0 .835-1.447l-6.239-12.457a1 1 0 0 0 -1.658-.2z"/><path d="m29.552 25.217-3.582-7.153.894-.448a4 4 0 0 1 3.581 7.154zm-.779-6.017 1.552 3.1a2 2 0 0 0 -1.039-3 2.035 2.035 0 0 0 -.513-.1z"/><path d="m22.855 39.4a3 3 0 0 1 -2.687-1.657l-3.134-6.258 1.788-.9 3.134 6.259a1 1 0 1 0 1.789-.9l-2.367-4.724 1.788-.9 2.367 4.726a3.005 3.005 0 0 1 -1.339 4.026 2.972 2.972 0 0 1 -1.339.328z"/></g></svg>