<?xml version="1.0" encoding="UTF-8"?>
<svg id="Layer_2" xmlns="http://www.w3.org/2000/svg" xmlns:xlink="http://www.w3.org/1999/xlink" version="1.1" viewBox="0 0 818.7 227.6">
  <!-- Generator: Adobe Illustrator 29.1.0, SVG Export Plug-In . SVG Version: 2.1.0 Build 142)  -->
  <defs>
    <style>
      .st0 {
        fill: url(#linear-gradient1);
      }

      .st1 {
        fill: url(#linear-gradient);
      }

      .st2 {
        fill: #fbaa19;
      }

      .st3 {
        fill: #fff;
      }

      .st4 {
        fill: #0079ff;
      }
    </style>
    <linearGradient id="linear-gradient" x1="799" y1="241.2" x2="750.5" y2="157.2" gradientTransform="translate(0 230) scale(1 -1)" gradientUnits="userSpaceOnUse">
      <stop offset="0" stop-color="#0079ff"/>
      <stop offset=".2" stop-color="#0077fc"/>
      <stop offset=".4" stop-color="#0072f4"/>
      <stop offset=".5" stop-color="#0069e5"/>
      <stop offset=".6" stop-color="#005dd1"/>
      <stop offset=".7" stop-color="#004db7"/>
      <stop offset=".8" stop-color="#003996"/>
      <stop offset=".9" stop-color="#002170"/>
      <stop offset="1" stop-color="#000745"/>
      <stop offset="1" stop-color="#010440"/>
    </linearGradient>
    <linearGradient id="linear-gradient1" x1="799" y1="48" x2="750.5" y2="132.1" gradientTransform="translate(0 230) scale(1 -1)" gradientUnits="userSpaceOnUse">
      <stop offset="0" stop-color="#0079ff"/>
      <stop offset=".2" stop-color="#0077fc"/>
      <stop offset=".4" stop-color="#0072f4"/>
      <stop offset=".5" stop-color="#0069e5"/>
      <stop offset=".6" stop-color="#005dd1"/>
      <stop offset=".7" stop-color="#004db7"/>
      <stop offset=".8" stop-color="#003996"/>
      <stop offset=".9" stop-color="#002170"/>
      <stop offset="1" stop-color="#000745"/>
      <stop offset="1" stop-color="#010440"/>
    </linearGradient>
  </defs>
  <g id="Layer_1-2">
    <g>
      <g>
        <polygon class="st4" points="747.7 99.6 733.5 113.8 733.4 113.8 705 142.2 705 142.2 705 142.2 676.6 170.6 648.2 170.6 676.6 142.2 676.6 142.2 676.6 142.2 705 113.8 705 113.8 705 113.8 719.2 99.6 733.4 85.4 733.5 85.4 747.7 99.6"/>
        <polygon class="st1" points="818.7 .2 761.8 57 761.8 57 761.8 57 747.7 71.2 733.5 57 733.5 57 790.3 .2 818.7 .2"/>
        <polygon class="st4" points="747.7 71.2 733.5 85.4 733.4 85.4 705 57 705 57 705 57 648.2 .2 676.6 .2 733.4 57 733.4 57 733.5 57 747.7 71.2"/>
        <polygon class="st0" points="818.7 170.6 790.3 170.6 761.8 142.2 761.8 142.2 761.8 142.2 733.5 113.8 747.7 99.6 761.8 113.8 761.8 113.8 761.8 113.8 790.3 142.2 790.3 142.2 790.3 142.2 818.7 170.6"/>
      </g>
      <path class="st3" d="M14.6,170.5H0V0h14.6v170.4Z"/>
      <path class="st3" d="M56.5,51v19.5c11.3-13.8,22.2-19.7,36.5-19.7s19.7,3.3,26.1,9.2c7.4,6.6,10,14.3,10,28.6v81.8h-12.8v-76.2c0-12.3-1.3-18.9-4.9-23.5-3.8-4.9-11.2-7.9-19.9-7.9s-18.7,3.6-25.6,10.7c-7.2,7.4-9.5,13.6-9.5,24.8v72.1h-12.8V51h12.8Z"/>
      <path class="st3" d="M225,83.3c0-13.3-9.6-20.8-25.9-20.8s-25.4,7.5-25.4,19.3,6,16.8,27.4,22.1c15.6,3.8,23.1,7.3,28.9,13.3,5.5,5.5,9,13.8,9,21.9,0,18.8-15.6,31.4-39.4,31.4s-38.9-11.3-41.4-34.2h12.8c1,14.3,11.8,22.9,29.1,22.9s25.9-8,25.9-20.1-7.8-17.8-28.9-22.9c-13.6-3.3-20.9-6.5-26.6-11.8-6-5.3-9.8-13.6-9.8-21.8,0-18.8,15.8-31.7,38.7-31.7s37.7,12.1,38.7,32.4h-13.1,0Z"/>
      <path class="st3" d="M284.1,170.5h-12.8V51h12.8v119.5Z"/>
      <path class="st3" d="M413,51h12.6v123c0,33.4-20.6,53.5-55,53.5s-37.2-6.8-48-20.1l9.5-9.3c5.3,5.8,7.8,8,11.1,10.1,6.3,4,17.8,7,28.1,7s25.6-4.8,32.9-12.3c6-6.5,8.8-15.6,8.8-28.9v-30.9c-6,9.8-9.3,13.8-14.8,18.1-7.8,5.8-18.6,9.3-28.9,9.3-29.9,0-52.8-25.6-52.8-59.6s6.8-36.2,18.3-47c8.8-8.8,20.6-13.1,35.2-13.1s30.4,7,43,24.6v-24.5h0ZM329.6,110.2c0,27.9,17.6,48.5,41.5,48.5s23.6-5.8,32.2-15.6c5.5-6.8,9.3-20.1,9.3-33.2s-2.3-24.1-9-32.4c-7.8-9.1-19.9-14.8-31.7-14.8-24.9,0-42.2,19.6-42.2,47.5Z"/>
      <path class="st3" d="M467.5,71.1c11-13.8,22.5-20.2,37.1-20.2s21.2,4.1,27.1,10.5c5.9,6.1,8.4,15.1,8.4,29.4v79.8h-12.8v-80.8c0-17.4-8.4-26.8-24.3-26.8s-20.2,4.6-27.1,12.8c-6.4,7.7-8.4,14.3-8.4,26.6v68.2h-12.8V0h12.8v71.1h0Z"/>
      <path class="st3" d="M599.9,152.1c.2,5.9,1.5,6.9,8.4,6.9h10.7v11.5h-13.8c-13,0-17.9-4.6-18.2-16.1V63h-17.9v-12h17.9V0h12.8v50.9h19.2v12h-19.2v89.1Z"/>
      <path class="st2" d="M287.4,10c0,5.1-4.4,9.5-9.5,9.5s-9.7-4.4-9.7-9.7S272.6,0,278,0s9.5,4.3,9.5,10h0Z"/>
    </g>
  </g>
</svg>